<svg width="236" height="234" viewBox="0 0 236 234" fill="none" xmlns="http://www.w3.org/2000/svg">
<path d="M126.102 52.5913H60.8663C57.5155 52.5913 55.113 49.3599 56.0782 46.1511L68.8887 3.55984C69.5243 1.44664 71.4701 0 73.6768 0H161.235C163.441 0 165.386 1.44588 166.023 3.55832L233.286 226.932C234.253 230.141 231.85 233.374 228.499 233.374H188.184C185.98 233.374 184.036 231.931 183.398 229.821L130.888 56.1443C130.25 54.0345 128.306 52.5913 126.102 52.5913Z" fill="url(#paint0_linear_2003_51)"/>
<path d="M46.0742 233.374H6.70927C3.3632 233.374 0.961404 230.151 1.91791 226.945L21.8138 160.249C22.4458 158.13 24.3942 156.678 26.6051 156.678H58.3435H61.8472C64.531 156.492 68.2756 155.823 71.3087 153.73C73.3214 152.342 74.7361 150.26 75.7184 148.201L77.7913 141.394L87.7407 108.726C88.3817 106.621 90.3234 105.183 92.5238 105.183H128.057C130.26 105.183 132.203 106.624 132.842 108.732L145.426 150.227C146.4 153.438 143.997 156.678 140.641 156.678H87.9782H82.3767C79.8997 156.944 77.0854 157.639 75.013 159.287C72.6275 161.184 70.943 164.567 69.8703 167.402L68.3932 172.252L50.8573 229.831C50.2162 231.935 48.2745 233.374 46.0742 233.374Z" fill="url(#paint1_linear_2003_51)"/>
<defs>
<linearGradient id="paint0_linear_2003_51" x1="73.1609" y1="-5.55653" x2="117.613" y2="150.952" gradientUnits="userSpaceOnUse">
<stop offset="0.000100017" stop-color="#F8F6F7"/>
<stop offset="1" stop-color="#EBCD5F"/>
</linearGradient>
<linearGradient id="paint1_linear_2003_51" x1="73.1609" y1="-5.55653" x2="117.613" y2="150.952" gradientUnits="userSpaceOnUse">
<stop offset="0.000100017" stop-color="#F8F6F7"/>
<stop offset="1" stop-color="#EBCD5F"/>
</linearGradient>
</defs>
</svg>
